<svg xmlns="http://www.w3.org/2000/svg" width="24" height="24" viewBox="0 0 24 24" fill="none" stroke="currentColor" stroke-width="2" stroke-linecap="round" stroke-linejoin="round">
  <!-- Face mask icon -->
  <path d="M12 3C7 3 3 7 3 10c0 2 1.5 3.5 3 4.5V17c0 1 1 2 2 2h8c1 0 2-1 2-2v-2.5c1.5-1 3-2.5 3-4.5 0-3-4-7-9-7z"/>
  <path d="M9 12h6"/>
  <path d="M3 10c0 0 2-1 3-1"/>
  <path d="M21 10c0 0-2-1-3-1"/>
  <circle cx="8" cy="9" r="0.5" fill="currentColor"/>
  <circle cx="16" cy="9" r="0.5" fill="currentColor"/>
</svg>