<svg width="24" height="24" viewBox="0 0 24 24" fill="none" xmlns="http://www.w3.org/2000/svg">
<path d="M17.2056 5.25342C17.643 5.06309 17.8616 4.96792 17.9958 5.00972C18.1122 5.04595 18.2033 5.13601 18.2401 5.25103C18.2825 5.3837 18.1865 5.6001 17.9946 6.03289L12.548 18.3152C12.3748 18.7059 12.2881 18.9013 12.167 18.9611C12.0619 19.013 11.9381 19.013 11.833 18.9611C11.7119 18.9013 11.6252 18.7059 11.452 18.3152L6.00538 6.03289C5.81345 5.6001 5.71749 5.3837 5.75991 5.25103C5.79668 5.13601 5.88784 5.04595 6.00418 5.00972C6.13837 4.96792 6.35705 5.06309 6.7944 5.25342L11.759 7.41393C11.8478 7.45257 11.8922 7.47188 11.9383 7.47952C11.9791 7.48628 12.0209 7.48628 12.0617 7.47952C12.1078 7.47188 12.1522 7.45257 12.241 7.41393L17.2056 5.25342Z" fill="#64b4dc" stroke="#64b4dc" stroke-width="1.5" stroke-linecap="round" stroke-linejoin="round"/>
</svg>
